{
  "accessors": [
    {
      "bufferView": 2,
      "componentType": 5126,
      "count": 652,
      "max": [
        3.0153777599334717,
        21.388614654541016,
        3.0153732299804688
      ],
      "min": [
        -3.0153748989105225,
        -1.512862205505371,
        -3.0153732299804688
      ],
      "type": "VEC3"
    },
    {
      "bufferView": 2,
      "byteOffset": 7824,
      "componentType": 5126,
      "count": 652,
      "max": [
        1.0,
        0.9992529153823853,
        1.0
      ],
      "min": [
        -1.0,
        -1.0,
        -1.0
      ],
      "type": "VEC3"
    },
    {
      "bufferView": 3,
      "componentType": 5126,
      "count": 652,
      "max": [
        0.9999991655349731,
        0.9996551275253296,
        0.9998955130577087,
        -1.0
      ],
      "min": [
        -1.0,
        -0.9996546506881714,
        -0.9999991655349731,
        -1.0
      ],
      "type": "VEC4"
    },
    {
      "bufferView": 1,
      "componentType": 5126,
      "count": 652,
      "max": [
        1.0,
        1.0
      ],
      "min": [
        0.0,
        0.011638998985290527
      ],
      "type": "VEC2"
    },
    {
      "bufferView": 1,
      "byteOffset": 5216,
      "componentType": 5126,
      "count": 652,
      "max": [
        1.0,
        1.0
      ],
      "min": [
        0.0,
        0.011638998985290527
      ],
      "type": "VEC2"
    },
    {
      "bufferView": 1,
      "byteOffset": 10432,
      "componentType": 5126,
      "count": 652,
      "max": [
        1.0,
        1.0
      ],
      "min": [
        0.0,
        0.011638998985290527
      ],
      "type": "VEC2"
    },
    {
      "bufferView": 1,
      "byteOffset": 15648,
      "componentType": 5126,
      "count": 652,
      "max": [
        1.0,
        1.0
      ],
      "min": [
        0.0,
        0.011638998985290527
      ],
      "type": "VEC2"
    },
    {
      "bufferView": 1,
      "byteOffset": 20864,
      "componentType": 5126,
      "count": 652,
      "max": [
        1.0,
        1.0
      ],
      "min": [
        0.0,
        0.011638998985290527
      ],
      "type": "VEC2"
    },
    {
      "bufferView": 0,
      "componentType": 5125,
      "count": 2508,
      "type": "SCALAR"
    }
  ],
  "asset": {
    "extras": {
      "author": "anaa_ggarcia (https://sketchfab.com/anagarciaon)",
      "license": "CC-BY-4.0 (http://creativecommons.org/licenses/by/4.0/)",
      "source": "https://sketchfab.com/3d-models/vino-tinto-castano-coleccion-9f3b51d1dfd84a8fab1ef652de59d8f2",
      "title": "Vino Tinto Castaño Colección"
    },
    "generator": "Sketchfab-14.15.0",
    "version": "2.0"
  },
  "bufferViews": [
    {
      "buffer": 0,
      "byteLength": 10032,
      "name": "floatBufferViews",
      "target": 34963
    },
    {
      "buffer": 0,
      "byteLength": 26080,
      "byteOffset": 10032,
      "byteStride": 8,
      "name": "floatBufferViews",
      "target": 34962
    },
    {
      "buffer": 0,
      "byteLength": 15648,
      "byteOffset": 36112,
      "byteStride": 12,
      "name": "floatBufferViews",
      "target": 34962
    },
    {
      "buffer": 0,
      "byteLength": 10432,
      "byteOffset": 51760,
      "byteStride": 16,
      "name": "floatBufferViews",
      "target": 34962
    }
  ],
  "buffers": [
    {
      "byteLength": 62192,
      "uri": "scene.bin"
    }
  ],
  "images": [
    {
      "uri": "textures/initialShadingGroup_baseColor.png"
    },
    {
      "uri": "textures/initialShadingGroup_metallicRoughness.png"
    },
    {
      "uri": "textures/initialShadingGroup_normal.png"
    }
  ],
  "materials": [
    {
      "name": "initialShadingGroup",
      "normalTexture": {
        "index": 2
      },
      "occlusionTexture": {
        "index": 1
      },
      "pbrMetallicRoughness": {
        "baseColorTexture": {
          "index": 0
        },
        "metallicRoughnessTexture": {
          "index": 1
        }
      }
    }
  ],
  "meshes": [
    {
      "name": "Object_0",
      "primitives": [
        {
          "attributes": {
            "NORMAL": 1,
            "POSITION": 0,
            "TANGENT": 2,
            "TEXCOORD_0": 3,
            "TEXCOORD_1": 4,
            "TEXCOORD_2": 5,
            "TEXCOORD_3": 6,
            "TEXCOORD_4": 7
          },
          "indices": 8,
          "material": 0,
          "mode": 4
        }
      ]
    }
  ],
  "nodes": [
    {
      "children": [
        1
      ],
      "matrix": [
        1.0,
        0.0,
        0.0,
        0.0,
        0.0,
        2.220446049250313e-16,
        -1.0,
        0.0,
        0.0,
        1.0,
        2.220446049250313e-16,
        0.0,
        0.0,
        0.0,
        0.0,
        1.0
      ],
      "name": "Sketchfab_model"
    },
    {
      "children": [
        2
      ],
      "name": "root"
    },
    {
      "children": [
        3
      ],
      "matrix": [
        1.0,
        0.0,
        0.0,
        0.0,
        0.0,
        2.220446049250313e-16,
        1.0,
        0.0,
        0.0,
        -1.0,
        2.220446049250313e-16,
        0.0,
        0.0,
        0.0,
        0.0,
        1.0
      ],
      "name": "GLTF_SceneRootNode"
    },
    {
      "children": [
        4
      ],
      "name": "Botella.obj_0"
    },
    {
      "children": [
        5
      ],
      "name": "CUNE1_1"
    },
    {
      "children": [
        6
      ],
      "name": "CUNE1_2"
    },
    {
      "mesh": 0,
      "name": "Object_6"
    }
  ],
  "samplers": [
    {
      "magFilter": 9729,
      "minFilter": 9987,
      "wrapS": 10497,
      "wrapT": 10497
    }
  ],
  "scene": 0,
  "scenes": [
    {
      "name": "Sketchfab_Scene",
      "nodes": [
        0
      ]
    }
  ],
  "textures": [
    {
      "sampler": 0,
      "source": 0
    },
    {
      "sampler": 0,
      "source": 1
    },
    {
      "sampler": 0,
      "source": 2
    }
  ]
}
